<svg xmlns="http://www.w3.org/2000/svg" version="1.1" xmlns:xlink="http://www.w3.org/1999/xlink" xmlns:svgjs="http://svgjs.com/svgjs" width="1440" height="560" preserveAspectRatio="none" viewBox="0 0 1440 560"><g mask="url(&quot;#SvgjsMask1170&quot;)" fill="none"><rect width="1440" height="560" x="0" y="0" fill="url(#SvgjsLinearGradient1171)"></rect><path d="M-38.07 354.5L-38.07 354.5" stroke="#132e65" stroke-width="1.5"></path><path d="M-38.07 354.5L60.08 387.76" stroke="#132e65" stroke-width="1.5"></path><path d="M-38.07 354.5L-75.1 520.93" stroke="#132e65" stroke-width="1.5"></path><path d="M-75.1 520.93L-75.1 520.93" stroke="#132e65" stroke-width="1.5"></path><path d="M-75.1 520.93L-104.37 648.31" stroke="#132e65" stroke-width="1.5"></path><path d="M-75.1 520.93L82.54 513.01" stroke="#132e65" stroke-width="1.5"></path><path d="M-75.1 520.93L47.59 660.86" stroke="#132e65" stroke-width="1.5"></path><path d="M-104.37 648.31L-104.37 648.31" stroke="#132e65" stroke-width="1.5"></path><path d="M-104.37 648.31L47.59 660.86" stroke="#132e65" stroke-width="1.5"></path><path d="M-104.37 648.31L82.54 513.01" stroke="#132e65" stroke-width="1.5"></path><path d="M60.08 387.76L60.08 387.76" stroke="#132e65" stroke-width="1.5"></path><path d="M60.08 387.76L82.54 513.01" stroke="#132e65" stroke-width="1.5"></path><path d="M60.08 387.76L208.41 343.04" stroke="#132e65" stroke-width="1.5"></path><path d="M82.54 513.01L82.54 513.01" stroke="#132e65" stroke-width="1.5"></path><path d="M82.54 513.01L47.59 660.86" stroke="#132e65" stroke-width="1.5"></path><path d="M82.54 513.01L259.54 521.46" stroke="#132e65" stroke-width="1.5"></path><path d="M82.54 513.01L-38.07 354.5" stroke="#132e65" stroke-width="1.5"></path><path d="M82.54 513.01L208.41 343.04" stroke="#132e65" stroke-width="1.5"></path><path d="M47.59 660.86L47.59 660.86" stroke="#132e65" stroke-width="1.5"></path><path d="M47.59 660.86L259.54 521.46" stroke="#132e65" stroke-width="1.5"></path><path d="M47.59 660.86L60.08 387.76" stroke="#132e65" stroke-width="1.5"></path><path d="M47.59 660.86L-38.07 354.5" stroke="#132e65" stroke-width="1.5"></path><path d="M208.41 343.04L208.41 343.04" stroke="#132e65" stroke-width="1.5"></path><path d="M208.41 343.04L259.54 521.46" stroke="#132e65" stroke-width="1.5"></path><path d="M208.41 343.04L398.04 353.96" stroke="#132e65" stroke-width="1.5"></path><path d="M259.54 521.46L259.54 521.46" stroke="#132e65" stroke-width="1.5"></path><path d="M259.54 521.46L388.29 518.38" stroke="#132e65" stroke-width="1.5"></path><path d="M259.54 521.46L397.07 640.32" stroke="#132e65" stroke-width="1.5"></path><path d="M259.54 521.46L398.04 353.96" stroke="#132e65" stroke-width="1.5"></path><path d="M398.04 353.96L398.04 353.96" stroke="#132e65" stroke-width="1.5"></path><path d="M398.04 353.96L496.43 393.65" stroke="#132e65" stroke-width="1.5"></path><path d="M398.04 353.96L388.29 518.38" stroke="#132e65" stroke-width="1.5"></path><path d="M398.04 353.96L531.43 492.16" stroke="#132e65" stroke-width="1.5"></path><path d="M388.29 518.38L388.29 518.38" stroke="#132e65" stroke-width="1.5"></path><path d="M388.29 518.38L397.07 640.32" stroke="#132e65" stroke-width="1.5"></path><path d="M388.29 518.38L531.43 492.16" stroke="#132e65" stroke-width="1.5"></path><path d="M388.29 518.38L496.43 393.65" stroke="#132e65" stroke-width="1.5"></path><path d="M388.29 518.38L541.68 654.16" stroke="#132e65" stroke-width="1.5"></path><path d="M397.07 640.32L397.07 640.32" stroke="#132e65" stroke-width="1.5"></path><path d="M397.07 640.32L541.68 654.16" stroke="#132e65" stroke-width="1.5"></path><path d="M397.07 640.32L531.43 492.16" stroke="#132e65" stroke-width="1.5"></path><path d="M496.43 393.65L496.43 393.65" stroke="#132e65" stroke-width="1.5"></path><path d="M496.43 393.65L531.43 492.16" stroke="#132e65" stroke-width="1.5"></path><path d="M531.43 492.16L531.43 492.16" stroke="#132e65" stroke-width="1.5"></path><path d="M531.43 492.16L541.68 654.16" stroke="#132e65" stroke-width="1.5"></path><path d="M531.43 492.16L696.26 513.78" stroke="#132e65" stroke-width="1.5"></path><path d="M541.68 654.16L541.68 654.16" stroke="#132e65" stroke-width="1.5"></path><path d="M541.68 654.16L698.41 667.32" stroke="#132e65" stroke-width="1.5"></path><path d="M695.63 212.09L695.63 212.09" stroke="#132e65" stroke-width="1.5"></path><path d="M695.63 212.09L660.49 361.49" stroke="#132e65" stroke-width="1.5"></path><path d="M695.63 212.09L857.74 198.93" stroke="#132e65" stroke-width="1.5"></path><path d="M695.63 212.09L816.41 378.99" stroke="#132e65" stroke-width="1.5"></path><path d="M695.63 212.09L496.43 393.65" stroke="#132e65" stroke-width="1.5"></path><path d="M695.63 212.09L696.26 513.78" stroke="#132e65" stroke-width="1.5"></path><path d="M695.63 212.09L1001.7 251.83" stroke="#132e65" stroke-width="1.5"></path><path d="M660.49 361.49L660.49 361.49" stroke="#132e65" stroke-width="1.5"></path><path d="M660.49 361.49L696.26 513.78" stroke="#132e65" stroke-width="1.5"></path><path d="M660.49 361.49L816.41 378.99" stroke="#132e65" stroke-width="1.5"></path><path d="M696.26 513.78L696.26 513.78" stroke="#132e65" stroke-width="1.5"></path><path d="M696.26 513.78L698.41 667.32" stroke="#132e65" stroke-width="1.5"></path><path d="M698.41 667.32L698.41 667.32" stroke="#132e65" stroke-width="1.5"></path><path d="M698.41 667.32L827.02 690.69" stroke="#132e65" stroke-width="1.5"></path><path d="M857.74 198.93L857.74 198.93" stroke="#132e65" stroke-width="1.5"></path><path d="M857.74 198.93L1001.7 251.83" stroke="#132e65" stroke-width="1.5"></path><path d="M816.41 378.99L816.41 378.99" stroke="#132e65" stroke-width="1.5"></path><path d="M816.41 378.99L989.16 369.21" stroke="#132e65" stroke-width="1.5"></path><path d="M816.41 378.99L696.26 513.78" stroke="#132e65" stroke-width="1.5"></path><path d="M827.02 690.69L827.02 690.69" stroke="#132e65" stroke-width="1.5"></path><path d="M827.02 690.69L993.71 647.34" stroke="#132e65" stroke-width="1.5"></path><path d="M827.02 690.69L696.26 513.78" stroke="#132e65" stroke-width="1.5"></path><path d="M827.02 690.69L1011.38 518.86" stroke="#132e65" stroke-width="1.5"></path><path d="M827.02 690.69L541.68 654.16" stroke="#132e65" stroke-width="1.5"></path><path d="M827.02 690.69L816.41 378.99" stroke="#132e65" stroke-width="1.5"></path><path d="M961.48 -67.58L961.48 -67.58" stroke="#132e65" stroke-width="1.5"></path><path d="M961.48 -67.58L1104.7 -49.19" stroke="#132e65" stroke-width="1.5"></path><path d="M961.48 -67.58L1011.88 94.05" stroke="#132e65" stroke-width="1.5"></path><path d="M1011.88 94.05L1011.88 94.05" stroke="#132e65" stroke-width="1.5"></path><path d="M1011.88 94.05L1126.89 43.8" stroke="#132e65" stroke-width="1.5"></path><path d="M1001.7 251.83L1001.7 251.83" stroke="#132e65" stroke-width="1.5"></path><path d="M1001.7 251.83L1090.17 212.45" stroke="#132e65" stroke-width="1.5"></path><path d="M1001.7 251.83L989.16 369.21" stroke="#132e65" stroke-width="1.5"></path><path d="M1001.7 251.83L1011.88 94.05" stroke="#132e65" stroke-width="1.5"></path><path d="M1001.7 251.83L816.41 378.99" stroke="#132e65" stroke-width="1.5"></path><path d="M1001.7 251.83L1126.89 43.8" stroke="#132e65" stroke-width="1.5"></path><path d="M989.16 369.21L989.16 369.21" stroke="#132e65" stroke-width="1.5"></path><path d="M989.16 369.21L1011.38 518.86" stroke="#132e65" stroke-width="1.5"></path><path d="M989.16 369.21L1090.17 212.45" stroke="#132e65" stroke-width="1.5"></path><path d="M1011.38 518.86L1011.38 518.86" stroke="#132e65" stroke-width="1.5"></path><path d="M1011.38 518.86L1119.22 544.17" stroke="#132e65" stroke-width="1.5"></path><path d="M1011.38 518.86L993.71 647.34" stroke="#132e65" stroke-width="1.5"></path><path d="M1011.38 518.86L816.41 378.99" stroke="#132e65" stroke-width="1.5"></path><path d="M993.71 647.34L993.71 647.34" stroke="#132e65" stroke-width="1.5"></path><path d="M993.71 647.34L1119.22 544.17" stroke="#132e65" stroke-width="1.5"></path><path d="M1104.7 -49.19L1104.7 -49.19" stroke="#132e65" stroke-width="1.5"></path><path d="M1104.7 -49.19L1126.89 43.8" stroke="#132e65" stroke-width="1.5"></path><path d="M1126.89 43.8L1126.89 43.8" stroke="#132e65" stroke-width="1.5"></path><path d="M1090.17 212.45L1090.17 212.45" stroke="#132e65" stroke-width="1.5"></path><path d="M1090.17 212.45L1011.88 94.05" stroke="#132e65" stroke-width="1.5"></path><path d="M1090.17 212.45L1126.89 43.8" stroke="#132e65" stroke-width="1.5"></path><path d="M1119.22 544.17L1119.22 544.17" stroke="#132e65" stroke-width="1.5"></path><path d="M1119.22 544.17L1279.6 522.28" stroke="#132e65" stroke-width="1.5"></path><path d="M1266.07 -67.81L1266.07 -67.81" stroke="#132e65" stroke-width="1.5"></path><path d="M1266.07 -67.81L1262.5 76.17" stroke="#132e65" stroke-width="1.5"></path><path d="M1262.5 76.17L1262.5 76.17" stroke="#132e65" stroke-width="1.5"></path><path d="M1262.5 76.17L1126.89 43.8" stroke="#132e65" stroke-width="1.5"></path><path d="M1285.06 231.61L1285.06 231.61" stroke="#132e65" stroke-width="1.5"></path><path d="M1285.06 231.61L1398.12 233.24" stroke="#132e65" stroke-width="1.5"></path><path d="M1285.06 231.61L1262.5 76.17" stroke="#132e65" stroke-width="1.5"></path><path d="M1276.97 399.38L1276.97 399.38" stroke="#132e65" stroke-width="1.5"></path><path d="M1276.97 399.38L1279.6 522.28" stroke="#132e65" stroke-width="1.5"></path><path d="M1276.97 399.38L1285.06 231.61" stroke="#132e65" stroke-width="1.5"></path><path d="M1276.97 399.38L1447.46 352.88" stroke="#132e65" stroke-width="1.5"></path><path d="M1276.97 399.38L1443.55 508.22" stroke="#132e65" stroke-width="1.5"></path><path d="M1276.97 399.38L1398.12 233.24" stroke="#132e65" stroke-width="1.5"></path><path d="M1276.97 399.38L1119.22 544.17" stroke="#132e65" stroke-width="1.5"></path><path d="M1279.6 522.28L1279.6 522.28" stroke="#132e65" stroke-width="1.5"></path><path d="M1282.69 646.42L1282.69 646.42" stroke="#132e65" stroke-width="1.5"></path><path d="M1282.69 646.42L1279.6 522.28" stroke="#132e65" stroke-width="1.5"></path><path d="M1282.69 646.42L1444.48 640.49" stroke="#132e65" stroke-width="1.5"></path><path d="M1282.69 646.42L1119.22 544.17" stroke="#132e65" stroke-width="1.5"></path><path d="M1282.69 646.42L1443.55 508.22" stroke="#132e65" stroke-width="1.5"></path><path d="M1282.69 646.42L1276.97 399.38" stroke="#132e65" stroke-width="1.5"></path><path d="M1434.29 -75.58L1434.29 -75.58" stroke="#132e65" stroke-width="1.5"></path><path d="M1434.29 -75.58L1459.84 57.05" stroke="#132e65" stroke-width="1.5"></path><path d="M1434.29 -75.58L1573.38 -65.66" stroke="#132e65" stroke-width="1.5"></path><path d="M1434.29 -75.58L1266.07 -67.81" stroke="#132e65" stroke-width="1.5"></path><path d="M1459.84 57.05L1459.84 57.05" stroke="#132e65" stroke-width="1.5"></path><path d="M1459.84 57.05L1573.38 -65.66" stroke="#132e65" stroke-width="1.5"></path><path d="M1459.84 57.05L1398.12 233.24" stroke="#132e65" stroke-width="1.5"></path><path d="M1398.12 233.24L1398.12 233.24" stroke="#132e65" stroke-width="1.5"></path><path d="M1398.12 233.24L1447.46 352.88" stroke="#132e65" stroke-width="1.5"></path><path d="M1398.12 233.24L1579.05 241.28" stroke="#132e65" stroke-width="1.5"></path><path d="M1447.46 352.88L1447.46 352.88" stroke="#132e65" stroke-width="1.5"></path><path d="M1447.46 352.88L1569.93 409.62" stroke="#132e65" stroke-width="1.5"></path><path d="M1443.55 508.22L1443.55 508.22" stroke="#132e65" stroke-width="1.5"></path><path d="M1443.55 508.22L1570.15 516" stroke="#132e65" stroke-width="1.5"></path><path d="M1443.55 508.22L1444.48 640.49" stroke="#132e65" stroke-width="1.5"></path><path d="M1443.55 508.22L1447.46 352.88" stroke="#132e65" stroke-width="1.5"></path><path d="M1443.55 508.22L1569.93 409.62" stroke="#132e65" stroke-width="1.5"></path><path d="M1443.55 508.22L1279.6 522.28" stroke="#132e65" stroke-width="1.5"></path><path d="M1444.48 640.49L1444.48 640.49" stroke="#132e65" stroke-width="1.5"></path><path d="M1444.48 640.49L1599.18 647.43" stroke="#132e65" stroke-width="1.5"></path><path d="M1444.48 640.49L1570.15 516" stroke="#132e65" stroke-width="1.5"></path><path d="M1573.38 -65.66L1573.38 -65.66" stroke="#132e65" stroke-width="1.5"></path><path d="M1573.38 -65.66L1579.05 241.28" stroke="#132e65" stroke-width="1.5"></path><path d="M1573.38 -65.66L1266.07 -67.81" stroke="#132e65" stroke-width="1.5"></path><path d="M1573.38 -65.66L1262.5 76.17" stroke="#132e65" stroke-width="1.5"></path><path d="M1573.38 -65.66L1398.12 233.24" stroke="#132e65" stroke-width="1.5"></path><path d="M1579.05 241.28L1579.05 241.28" stroke="#132e65" stroke-width="1.5"></path><path d="M1579.05 241.28L1569.93 409.62" stroke="#132e65" stroke-width="1.5"></path><path d="M1579.05 241.28L1447.46 352.88" stroke="#132e65" stroke-width="1.5"></path><path d="M1579.05 241.28L1459.84 57.05" stroke="#132e65" stroke-width="1.5"></path><path d="M1579.05 241.28L1570.15 516" stroke="#132e65" stroke-width="1.5"></path><path d="M1569.93 409.62L1569.93 409.62" stroke="#132e65" stroke-width="1.5"></path><path d="M1569.93 409.62L1570.15 516" stroke="#132e65" stroke-width="1.5"></path><path d="M1570.15 516L1570.15 516" stroke="#132e65" stroke-width="1.5"></path><path d="M1570.15 516L1599.18 647.43" stroke="#132e65" stroke-width="1.5"></path><path d="M1570.15 516L1447.46 352.88" stroke="#132e65" stroke-width="1.5"></path><path d="M1599.18 647.43L1599.18 647.43" stroke="#132e65" stroke-width="1.5"></path><circle r="5" cx="-38.07" cy="354.5" fill="#132e65"></circle><circle r="5" cx="-75.1" cy="520.93" fill="#132e65"></circle><circle r="5" cx="-104.37" cy="648.31" fill="#132e65"></circle><circle r="5" cx="60.08" cy="387.76" fill="#132e65"></circle><circle r="5" cx="82.54" cy="513.01" fill="#132e65"></circle><circle r="5" cx="47.59" cy="660.86" fill="#132e65"></circle><circle r="5" cx="208.41" cy="343.04" fill="#132e65"></circle><circle r="5" cx="259.54" cy="521.46" fill="#132e65"></circle><circle r="5" cx="398.04" cy="353.96" fill="#132e65"></circle><circle r="5" cx="388.29" cy="518.38" fill="#132e65"></circle><circle r="5" cx="397.07" cy="640.32" fill="#132e65"></circle><circle r="5" cx="496.43" cy="393.65" fill="#132e65"></circle><circle r="5" cx="531.43" cy="492.16" fill="#132e65"></circle><circle r="5" cx="541.68" cy="654.16" fill="#132e65"></circle><circle r="5" cx="695.63" cy="212.09" fill="#132e65"></circle><circle r="5" cx="660.49" cy="361.49" fill="#132e65"></circle><circle r="5" cx="696.26" cy="513.78" fill="#132e65"></circle><circle r="5" cx="698.41" cy="667.32" fill="#132e65"></circle><circle r="5" cx="857.74" cy="198.93" fill="#132e65"></circle><circle r="5" cx="816.41" cy="378.99" fill="#132e65"></circle><circle r="5" cx="827.02" cy="690.69" fill="#132e65"></circle><circle r="5" cx="961.48" cy="-67.58" fill="#132e65"></circle><circle r="5" cx="1011.88" cy="94.05" fill="#132e65"></circle><circle r="5" cx="1001.7" cy="251.83" fill="#132e65"></circle><circle r="5" cx="989.16" cy="369.21" fill="#132e65"></circle><circle r="5" cx="1011.38" cy="518.86" fill="#132e65"></circle><circle r="5" cx="993.71" cy="647.34" fill="#132e65"></circle><circle r="5" cx="1104.7" cy="-49.19" fill="#132e65"></circle><circle r="5" cx="1126.89" cy="43.8" fill="#132e65"></circle><circle r="5" cx="1090.17" cy="212.45" fill="#132e65"></circle><circle r="5" cx="1119.22" cy="544.17" fill="#132e65"></circle><circle r="5" cx="1266.07" cy="-67.81" fill="#132e65"></circle><circle r="5" cx="1262.5" cy="76.17" fill="#132e65"></circle><circle r="5" cx="1285.06" cy="231.61" fill="#132e65"></circle><circle r="5" cx="1276.97" cy="399.38" fill="#132e65"></circle><circle r="5" cx="1279.6" cy="522.28" fill="#132e65"></circle><circle r="5" cx="1282.69" cy="646.42" fill="#132e65"></circle><circle r="5" cx="1434.29" cy="-75.58" fill="#132e65"></circle><circle r="5" cx="1459.84" cy="57.05" fill="#132e65"></circle><circle r="5" cx="1398.12" cy="233.24" fill="#132e65"></circle><circle r="5" cx="1447.46" cy="352.88" fill="#132e65"></circle><circle r="5" cx="1443.55" cy="508.22" fill="#132e65"></circle><circle r="5" cx="1444.48" cy="640.49" fill="#132e65"></circle><circle r="5" cx="1573.38" cy="-65.66" fill="#132e65"></circle><circle r="5" cx="1579.05" cy="241.28" fill="#132e65"></circle><circle r="5" cx="1569.93" cy="409.62" fill="#132e65"></circle><circle r="5" cx="1570.15" cy="516" fill="#132e65"></circle><circle r="5" cx="1599.18" cy="647.43" fill="#132e65"></circle><path d="M71.85 542.19L71.85 542.19" stroke="hsl(228.5, 77.2%, 51.5%)" stroke-width="1.5"></path><path d="M71.85 542.19L-40.68 508.46" stroke="hsl(228.5, 77.2%, 51.5%)" stroke-width="1.5"></path><path d="M71.85 542.19L193.9 513.89" stroke="hsl(228.5, 77.2%, 51.5%)" stroke-width="1.5"></path><path d="M526.2 489.1L526.2 489.1" stroke="hsl(228.5, 77.2%, 51.5%)" stroke-width="1.5"></path><path d="M526.2 489.1L366.16 492.99" stroke="hsl(228.5, 77.2%, 51.5%)" stroke-width="1.5"></path><path d="M526.2 489.1L497.24 707.17" stroke="hsl(228.5, 77.2%, 51.5%)" stroke-width="1.5"></path><path d="M526.2 489.1L699.21 687.85" stroke="hsl(228.5, 77.2%, 51.5%)" stroke-width="1.5"></path><path d="M526.2 489.1L823.24 549.2" stroke="hsl(228.5, 77.2%, 51.5%)" stroke-width="1.5"></path><path d="M526.2 489.1L820.64 357.69" stroke="hsl(228.5, 77.2%, 51.5%)" stroke-width="1.5"></path><path d="M526.2 489.1L261.67 685.96" stroke="hsl(228.5, 77.2%, 51.5%)" stroke-width="1.5"></path><path d="M989.12 356.18L989.12 356.18" stroke="hsl(228.5, 77.2%, 51.5%)" stroke-width="1.5"></path><path d="M989.12 356.18L945.43 261.92" stroke="hsl(228.5, 77.2%, 51.5%)" stroke-width="1.5"></path><path d="M1304.4 194.33L1304.4 194.33" stroke="hsl(228.5, 77.2%, 51.5%)" stroke-width="1.5"></path><path d="M1304.4 194.33L1306.35 355.16" stroke="hsl(228.5, 77.2%, 51.5%)" stroke-width="1.5"></path><path d="M1304.4 194.33L1099.54 246.32" stroke="hsl(228.5, 77.2%, 51.5%)" stroke-width="1.5"></path><path d="M1304.4 194.33L1550.59 200.83" stroke="hsl(228.5, 77.2%, 51.5%)" stroke-width="1.5"></path><path d="M1304.4 194.33L1104.22 388.29" stroke="hsl(228.5, 77.2%, 51.5%)" stroke-width="1.5"></path><path d="M1304.4 194.33L1450.89 -48.58" stroke="hsl(228.5, 77.2%, 51.5%)" stroke-width="1.5"></path><path d="M1283.21 710.23L1283.21 710.23" stroke="hsl(228.5, 77.2%, 51.5%)" stroke-width="1.5"></path><path d="M1283.21 710.23L1446.45 696.98" stroke="hsl(228.5, 77.2%, 51.5%)" stroke-width="1.5"></path><path d="M1283.21 710.23L1114.67 675.26" stroke="hsl(228.5, 77.2%, 51.5%)" stroke-width="1.5"></path><path d="M1462 525.77L1462 525.77" stroke="hsl(228.5, 77.2%, 51.5%)" stroke-width="1.5"></path><path d="M1462 525.77L1552.65 524.23" stroke="hsl(228.5, 77.2%, 51.5%)" stroke-width="1.5"></path><path d="M1462 525.77L1545.79 409.67" stroke="hsl(228.5, 77.2%, 51.5%)" stroke-width="1.5"></path><path d="M1462 525.77L1446.45 696.98" stroke="hsl(228.5, 77.2%, 51.5%)" stroke-width="1.5"></path><path d="M1462 525.77L1288.21 496.98" stroke="hsl(228.5, 77.2%, 51.5%)" stroke-width="1.5"></path><path d="M1462 525.77L1561.31 694.57" stroke="hsl(228.5, 77.2%, 51.5%)" stroke-width="1.5"></path><path d="M1462 525.77L1306.35 355.16" stroke="hsl(228.5, 77.2%, 51.5%)" stroke-width="1.5"></path><path d="M1550.59 200.83L1550.59 200.83" stroke="hsl(228.5, 77.2%, 51.5%)" stroke-width="1.5"></path><path d="M1550.59 200.83L1580.79 107.99" stroke="hsl(228.5, 77.2%, 51.5%)" stroke-width="1.5"></path><path d="M1550.59 200.83L1545.79 409.67" stroke="hsl(228.5, 77.2%, 51.5%)" stroke-width="1.5"></path><path d="M1550.59 200.83L1450.89 -48.58" stroke="hsl(228.5, 77.2%, 51.5%)" stroke-width="1.5"></path><path d="M1550.59 200.83L1584.87 -71.86" stroke="hsl(228.5, 77.2%, 51.5%)" stroke-width="1.5"></path><path d="M1550.59 200.83L1306.35 355.16" stroke="hsl(228.5, 77.2%, 51.5%)" stroke-width="1.5"></path><path d="M-40.68 508.46L-40.68 508.46" stroke="hsl(228.5, 77.2%, 51.5%)" stroke-width="1.5"></path><path d="M-40.68 508.46L-62.31 667.26" stroke="hsl(228.5, 77.2%, 51.5%)" stroke-width="1.5"></path><path d="M-40.68 508.46L112.14 662.62" stroke="hsl(228.5, 77.2%, 51.5%)" stroke-width="1.5"></path><path d="M-40.68 508.46L193.9 513.89" stroke="hsl(228.5, 77.2%, 51.5%)" stroke-width="1.5"></path><path d="M-40.68 508.46L261.67 685.96" stroke="hsl(228.5, 77.2%, 51.5%)" stroke-width="1.5"></path><path d="M-40.68 508.46L366.16 492.99" stroke="hsl(228.5, 77.2%, 51.5%)" stroke-width="1.5"></path><path d="M-62.31 667.26L-62.31 667.26" stroke="hsl(228.5, 77.2%, 51.5%)" stroke-width="1.5"></path><path d="M-62.31 667.26L112.14 662.62" stroke="hsl(228.5, 77.2%, 51.5%)" stroke-width="1.5"></path><path d="M-62.31 667.26L71.85 542.19" stroke="hsl(228.5, 77.2%, 51.5%)" stroke-width="1.5"></path><path d="M112.14 662.62L112.14 662.62" stroke="hsl(228.5, 77.2%, 51.5%)" stroke-width="1.5"></path><path d="M112.14 662.62L71.85 542.19" stroke="hsl(228.5, 77.2%, 51.5%)" stroke-width="1.5"></path><path d="M112.14 662.62L261.67 685.96" stroke="hsl(228.5, 77.2%, 51.5%)" stroke-width="1.5"></path><path d="M112.14 662.62L193.9 513.89" stroke="hsl(228.5, 77.2%, 51.5%)" stroke-width="1.5"></path><path d="M112.14 662.62L366.16 492.99" stroke="hsl(228.5, 77.2%, 51.5%)" stroke-width="1.5"></path><path d="M193.9 513.89L193.9 513.89" stroke="hsl(228.5, 77.2%, 51.5%)" stroke-width="1.5"></path><path d="M193.9 513.89L366.16 492.99" stroke="hsl(228.5, 77.2%, 51.5%)" stroke-width="1.5"></path><path d="M193.9 513.89L261.67 685.96" stroke="hsl(228.5, 77.2%, 51.5%)" stroke-width="1.5"></path><path d="M261.67 685.96L261.67 685.96" stroke="hsl(228.5, 77.2%, 51.5%)" stroke-width="1.5"></path><path d="M261.67 685.96L366.16 492.99" stroke="hsl(228.5, 77.2%, 51.5%)" stroke-width="1.5"></path><path d="M366.16 492.99L366.16 492.99" stroke="hsl(228.5, 77.2%, 51.5%)" stroke-width="1.5"></path><path d="M366.16 492.99L497.24 707.17" stroke="hsl(228.5, 77.2%, 51.5%)" stroke-width="1.5"></path><path d="M497.24 707.17L497.24 707.17" stroke="hsl(228.5, 77.2%, 51.5%)" stroke-width="1.5"></path><path d="M497.24 707.17L699.21 687.85" stroke="hsl(228.5, 77.2%, 51.5%)" stroke-width="1.5"></path><path d="M699.21 687.85L699.21 687.85" stroke="hsl(228.5, 77.2%, 51.5%)" stroke-width="1.5"></path><path d="M699.21 687.85L814.57 698.5" stroke="hsl(228.5, 77.2%, 51.5%)" stroke-width="1.5"></path><path d="M699.21 687.85L823.24 549.2" stroke="hsl(228.5, 77.2%, 51.5%)" stroke-width="1.5"></path><path d="M699.21 687.85L944.54 709.97" stroke="hsl(228.5, 77.2%, 51.5%)" stroke-width="1.5"></path><path d="M820.64 357.69L820.64 357.69" stroke="hsl(228.5, 77.2%, 51.5%)" stroke-width="1.5"></path><path d="M820.64 357.69L945.43 261.92" stroke="hsl(228.5, 77.2%, 51.5%)" stroke-width="1.5"></path><path d="M820.64 357.69L989.12 356.18" stroke="hsl(228.5, 77.2%, 51.5%)" stroke-width="1.5"></path><path d="M823.24 549.2L823.24 549.2" stroke="hsl(228.5, 77.2%, 51.5%)" stroke-width="1.5"></path><path d="M823.24 549.2L814.57 698.5" stroke="hsl(228.5, 77.2%, 51.5%)" stroke-width="1.5"></path><path d="M823.24 549.2L966.21 490.28" stroke="hsl(228.5, 77.2%, 51.5%)" stroke-width="1.5"></path><path d="M814.57 698.5L814.57 698.5" stroke="hsl(228.5, 77.2%, 51.5%)" stroke-width="1.5"></path><path d="M814.57 698.5L944.54 709.97" stroke="hsl(228.5, 77.2%, 51.5%)" stroke-width="1.5"></path><path d="M945.43 261.92L945.43 261.92" stroke="hsl(228.5, 77.2%, 51.5%)" stroke-width="1.5"></path><path d="M945.43 261.92L1099.54 246.32" stroke="hsl(228.5, 77.2%, 51.5%)" stroke-width="1.5"></path><path d="M945.43 261.92L1104.22 388.29" stroke="hsl(228.5, 77.2%, 51.5%)" stroke-width="1.5"></path><path d="M945.43 261.92L966.21 490.28" stroke="hsl(228.5, 77.2%, 51.5%)" stroke-width="1.5"></path><path d="M945.43 261.92L823.24 549.2" stroke="hsl(228.5, 77.2%, 51.5%)" stroke-width="1.5"></path><path d="M966.21 490.28L966.21 490.28" stroke="hsl(228.5, 77.2%, 51.5%)" stroke-width="1.5"></path><path d="M966.21 490.28L989.12 356.18" stroke="hsl(228.5, 77.2%, 51.5%)" stroke-width="1.5"></path><path d="M944.54 709.97L944.54 709.97" stroke="hsl(228.5, 77.2%, 51.5%)" stroke-width="1.5"></path><path d="M944.54 709.97L1114.67 675.26" stroke="hsl(228.5, 77.2%, 51.5%)" stroke-width="1.5"></path><path d="M944.54 709.97L823.24 549.2" stroke="hsl(228.5, 77.2%, 51.5%)" stroke-width="1.5"></path><path d="M944.54 709.97L966.21 490.28" stroke="hsl(228.5, 77.2%, 51.5%)" stroke-width="1.5"></path><path d="M944.54 709.97L1117.57 553.5" stroke="hsl(228.5, 77.2%, 51.5%)" stroke-width="1.5"></path><path d="M1099.54 246.32L1099.54 246.32" stroke="hsl(228.5, 77.2%, 51.5%)" stroke-width="1.5"></path><path d="M1099.54 246.32L1104.22 388.29" stroke="hsl(228.5, 77.2%, 51.5%)" stroke-width="1.5"></path><path d="M1099.54 246.32L989.12 356.18" stroke="hsl(228.5, 77.2%, 51.5%)" stroke-width="1.5"></path><path d="M1104.22 388.29L1104.22 388.29" stroke="hsl(228.5, 77.2%, 51.5%)" stroke-width="1.5"></path><path d="M1104.22 388.29L989.12 356.18" stroke="hsl(228.5, 77.2%, 51.5%)" stroke-width="1.5"></path><path d="M1104.22 388.29L1117.57 553.5" stroke="hsl(228.5, 77.2%, 51.5%)" stroke-width="1.5"></path><path d="M1104.22 388.29L966.21 490.28" stroke="hsl(228.5, 77.2%, 51.5%)" stroke-width="1.5"></path><path d="M1104.22 388.29L1306.35 355.16" stroke="hsl(228.5, 77.2%, 51.5%)" stroke-width="1.5"></path><path d="M1117.57 553.5L1117.57 553.5" stroke="hsl(228.5, 77.2%, 51.5%)" stroke-width="1.5"></path><path d="M1117.57 553.5L1114.67 675.26" stroke="hsl(228.5, 77.2%, 51.5%)" stroke-width="1.5"></path><path d="M1117.57 553.5L966.21 490.28" stroke="hsl(228.5, 77.2%, 51.5%)" stroke-width="1.5"></path><path d="M1114.67 675.26L1114.67 675.26" stroke="hsl(228.5, 77.2%, 51.5%)" stroke-width="1.5"></path><path d="M1306.35 355.16L1306.35 355.16" stroke="hsl(228.5, 77.2%, 51.5%)" stroke-width="1.5"></path><path d="M1306.35 355.16L1288.21 496.98" stroke="hsl(228.5, 77.2%, 51.5%)" stroke-width="1.5"></path><path d="M1306.35 355.16L1099.54 246.32" stroke="hsl(228.5, 77.2%, 51.5%)" stroke-width="1.5"></path><path d="M1306.35 355.16L1545.79 409.67" stroke="hsl(228.5, 77.2%, 51.5%)" stroke-width="1.5"></path><path d="M1288.21 496.98L1288.21 496.98" stroke="hsl(228.5, 77.2%, 51.5%)" stroke-width="1.5"></path><path d="M1288.21 496.98L1117.57 553.5" stroke="hsl(228.5, 77.2%, 51.5%)" stroke-width="1.5"></path><path d="M1288.21 496.98L1283.21 710.23" stroke="hsl(228.5, 77.2%, 51.5%)" stroke-width="1.5"></path><path d="M1288.21 496.98L1104.22 388.29" stroke="hsl(228.5, 77.2%, 51.5%)" stroke-width="1.5"></path><path d="M1288.21 496.98L1114.67 675.26" stroke="hsl(228.5, 77.2%, 51.5%)" stroke-width="1.5"></path><path d="M1450.89 -48.58L1450.89 -48.58" stroke="hsl(228.5, 77.2%, 51.5%)" stroke-width="1.5"></path><path d="M1450.89 -48.58L1584.87 -71.86" stroke="hsl(228.5, 77.2%, 51.5%)" stroke-width="1.5"></path><path d="M1450.89 -48.58L1580.79 107.99" stroke="hsl(228.5, 77.2%, 51.5%)" stroke-width="1.5"></path><path d="M1446.45 696.98L1446.45 696.98" stroke="hsl(228.5, 77.2%, 51.5%)" stroke-width="1.5"></path><path d="M1446.45 696.98L1561.31 694.57" stroke="hsl(228.5, 77.2%, 51.5%)" stroke-width="1.5"></path><path d="M1446.45 696.98L1552.65 524.23" stroke="hsl(228.5, 77.2%, 51.5%)" stroke-width="1.5"></path><path d="M1446.45 696.98L1288.21 496.98" stroke="hsl(228.5, 77.2%, 51.5%)" stroke-width="1.5"></path><path d="M1446.45 696.98L1545.79 409.67" stroke="hsl(228.5, 77.2%, 51.5%)" stroke-width="1.5"></path><path d="M1584.87 -71.86L1584.87 -71.86" stroke="hsl(228.5, 77.2%, 51.5%)" stroke-width="1.5"></path><path d="M1584.87 -71.86L1580.79 107.99" stroke="hsl(228.5, 77.2%, 51.5%)" stroke-width="1.5"></path><path d="M1584.87 -71.86L1304.4 194.33" stroke="hsl(228.5, 77.2%, 51.5%)" stroke-width="1.5"></path><path d="M1584.87 -71.86L1545.79 409.67" stroke="hsl(228.5, 77.2%, 51.5%)" stroke-width="1.5"></path><path d="M1580.79 107.99L1580.79 107.99" stroke="hsl(228.5, 77.2%, 51.5%)" stroke-width="1.5"></path><path d="M1580.79 107.99L1304.4 194.33" stroke="hsl(228.5, 77.2%, 51.5%)" stroke-width="1.5"></path><path d="M1580.79 107.99L1545.79 409.67" stroke="hsl(228.5, 77.2%, 51.5%)" stroke-width="1.5"></path><path d="M1580.79 107.99L1306.35 355.16" stroke="hsl(228.5, 77.2%, 51.5%)" stroke-width="1.5"></path><path d="M1545.79 409.67L1545.79 409.67" stroke="hsl(228.5, 77.2%, 51.5%)" stroke-width="1.5"></path><path d="M1545.79 409.67L1552.65 524.23" stroke="hsl(228.5, 77.2%, 51.5%)" stroke-width="1.5"></path><path d="M1552.65 524.23L1552.65 524.23" stroke="hsl(228.5, 77.2%, 51.5%)" stroke-width="1.5"></path><path d="M1552.65 524.23L1561.31 694.57" stroke="hsl(228.5, 77.2%, 51.5%)" stroke-width="1.5"></path><path d="M1561.31 694.57L1561.31 694.57" stroke="hsl(228.5, 77.2%, 51.5%)" stroke-width="1.5"></path><circle r="25" cx="71.85" cy="542.19" fill="url(#SvgjsRadialGradient1172)"></circle><circle r="25" cx="526.2" cy="489.1" fill="url(#SvgjsRadialGradient1172)"></circle><circle r="25" cx="989.12" cy="356.18" fill="url(#SvgjsRadialGradient1172)"></circle><circle r="25" cx="1304.4" cy="194.33" fill="url(#SvgjsRadialGradient1172)"></circle><circle r="25" cx="1283.21" cy="710.23" fill="url(#SvgjsRadialGradient1172)"></circle><circle r="25" cx="1462" cy="525.77" fill="url(#SvgjsRadialGradient1172)"></circle><circle r="25" cx="1550.59" cy="200.83" fill="url(#SvgjsRadialGradient1172)"></circle><circle r="5" cx="-40.68" cy="508.46" fill="#8b9ad9"></circle><circle r="5" cx="-62.31" cy="667.26" fill="#8b9ad9"></circle><circle r="5" cx="112.14" cy="662.62" fill="#8b9ad9"></circle><circle r="5" cx="193.9" cy="513.89" fill="#8b9ad9"></circle><circle r="5" cx="261.67" cy="685.96" fill="#8b9ad9"></circle><circle r="5" cx="366.16" cy="492.99" fill="#8b9ad9"></circle><circle r="5" cx="497.24" cy="707.17" fill="#8b9ad9"></circle><circle r="5" cx="699.21" cy="687.85" fill="#8b9ad9"></circle><circle r="5" cx="820.64" cy="357.69" fill="#8b9ad9"></circle><circle r="5" cx="823.24" cy="549.2" fill="#8b9ad9"></circle><circle r="5" cx="814.57" cy="698.5" fill="#8b9ad9"></circle><circle r="5" cx="945.43" cy="261.92" fill="#8b9ad9"></circle><circle r="5" cx="966.21" cy="490.28" fill="#8b9ad9"></circle><circle r="5" cx="944.54" cy="709.97" fill="#8b9ad9"></circle><circle r="5" cx="1099.54" cy="246.32" fill="#8b9ad9"></circle><circle r="5" cx="1104.22" cy="388.29" fill="#8b9ad9"></circle><circle r="5" cx="1117.57" cy="553.5" fill="#8b9ad9"></circle><circle r="5" cx="1114.67" cy="675.26" fill="#8b9ad9"></circle><circle r="5" cx="1306.35" cy="355.16" fill="#8b9ad9"></circle><circle r="5" cx="1288.21" cy="496.98" fill="#8b9ad9"></circle><circle r="5" cx="1450.89" cy="-48.58" fill="#8b9ad9"></circle><circle r="5" cx="1446.45" cy="696.98" fill="#8b9ad9"></circle><circle r="5" cx="1584.87" cy="-71.86" fill="#8b9ad9"></circle><circle r="5" cx="1580.79" cy="107.99" fill="#8b9ad9"></circle><circle r="5" cx="1545.79" cy="409.67" fill="#8b9ad9"></circle><circle r="5" cx="1552.65" cy="524.23" fill="#8b9ad9"></circle><circle r="5" cx="1561.31" cy="694.57" fill="#8b9ad9"></circle></g><defs><mask id="SvgjsMask1170"><rect width="1440" height="560" fill="#ffffff"></rect></mask><linearGradient x1="100%" y1="50%" x2="0%" y2="50%" gradientUnits="userSpaceOnUse" id="SvgjsLinearGradient1171"><stop stop-color="#0e2a47" offset="0"></stop><stop stop-color="rgba(0, 158, 121, 1)" offset="1"></stop></linearGradient><radialGradient id="SvgjsRadialGradient1172"><stop stop-color="#ffffff" offset="0.1"></stop><stop stop-color="#1735b3" offset="0.2"></stop><stop stop-color="rgba(23, 53, 179, 0)" offset="1"></stop></radialGradient></defs></svg>